# xmcd
#
# Track frame offsets:
#	150
#	24654
#	47631
#	82001
#	111168
#	119631
#	138354
#	153590
#
# Disc length: 2416 seconds
#
# Revision: 1
# Processed by: cddbd v1.5.1PL2 Copyright (c) Steve Scherf et al.
# Submitted via: EasyCDDAExtractor 9.0.0.1
#
DISCID=6b096e08
DTITLE=Black Sabbath - Estadio Ramon Valero 14-09-83 Disc 1 Source 2
DYEAR=1983
DGENRE=Hard Rock
TTITLE0=Children Of The Grave
TTITLE1=Hot Line
TTITLE2=War Pigs
TTITLE3=Born Again
TTITLE4=Supernaut
TTITLE5=Drum Solo
TTITLE6=Rock"N"Roll Doctor
TTITLE7=Disturbing The Priest
EXTD=
EXTT0=
EXTT1=
EXTT2=
EXTT3=
EXTT4=
EXTT5=
EXTT6=
EXTT7=
PLAYORDER=
